<svg xmlns="http://www.w3.org/2000/svg" xmlns:xlink="http://www.w3.org/1999/xlink" viewBox="0 0 184 180">
  <defs>
    <style>
      .a {
        fill: url(#a);
      }

      .b {
        fill: #ffecb3;
      }

      .c {
        fill: #fff;
      }

      .c, .d, .g {
        opacity: 0.2;
      }

      .d {
        fill: #bf360c;
      }

      .e {
        fill: #ff6f00;
      }

      .f {
        fill: #ffb74d;
      }

      .h {
        fill: #e65100;
      }

      .i {
        fill: #ffd54f;
      }

      .j {
        fill: #ff8f00;
      }
    </style>
    <linearGradient id="a" data-name="Sfumatura senza nome 53" x1="46.369" y1="46.681" x2="233.319" y2="233.631" gradientUnits="userSpaceOnUse">
      <stop offset="0" stop-color="#263238" stop-opacity="0.2"/>
      <stop offset="0.5" stop-color="#263238" stop-opacity="0"/>
    </linearGradient>
  </defs>
  <title>trimmed</title>
  <path class="a" d="M223.818,133.524c-.225-.246-94.74-95.378-94.984-95.6A11.962,11.962,0,0,0,120,34H64A12.035,12.035,0,0,0,52,46v92a11.961,11.961,0,0,0,3.869,8.788c.225.246,94.74,95.378,94.984,95.6a11.962,11.962,0,0,0,8.834,3.92h56a12.035,12.035,0,0,0,12-12v-92A11.961,11.961,0,0,0,223.818,133.524Z"/>
  <g>
    <g>
      <rect class="b" x="52" y="34" width="80" height="116" rx="12" ry="12"/>
      <path class="c" d="M120,34H64A12.035,12.035,0,0,0,52,46v1A12.035,12.035,0,0,1,64,35h56a12.035,12.035,0,0,1,12,12V46A12.035,12.035,0,0,0,120,34Z"/>
      <path class="d" d="M120,149H64a12.035,12.035,0,0,1-12-12v1a12.035,12.035,0,0,0,12,12h56a12.035,12.035,0,0,0,12-12v-1A12.035,12.035,0,0,1,120,149Z"/>
    </g>
    <g>
      <path class="e" d="M72.915,95.921H71.374l-.293.879h-.935l1.588-4.266h.814l1.6,4.266H73.21Zm-1.3-.712h1.066l-.536-1.6Z"/>
      <path class="e" d="M82.952,95.921H81.411l-.293.879h-.935l1.588-4.266h.814l1.6,4.266h-.935Zm-1.3-.712h1.066l-.536-1.6Z"/>
      <path class="e" d="M93.93,95.379a1.745,1.745,0,0,1-.146.6,1.391,1.391,0,0,1-.34.468,1.574,1.574,0,0,1-.526.3,2.122,2.122,0,0,1-.7.109,1.83,1.83,0,0,1-.737-.143,1.494,1.494,0,0,1-.554-.408,1.85,1.85,0,0,1-.349-.646,2.774,2.774,0,0,1-.122-.851v-.281a2.706,2.706,0,0,1,.126-.853,1.883,1.883,0,0,1,.356-.647,1.545,1.545,0,0,1,.558-.41,1.809,1.809,0,0,1,.732-.144,2.031,2.031,0,0,1,.7.113,1.53,1.53,0,0,1,.521.313,1.428,1.428,0,0,1,.334.479,1.988,1.988,0,0,1,.152.6h-.879a1.329,1.329,0,0,0-.066-.337.661.661,0,0,0-.148-.246.623.623,0,0,0-.249-.151,1.2,1.2,0,0,0-.369-.051.746.746,0,0,0-.664.324,1.821,1.821,0,0,0-.218,1v.287a3.074,3.074,0,0,0,.048.58,1.224,1.224,0,0,0,.152.416.678.678,0,0,0,.27.251.893.893,0,0,0,.4.083,1.217,1.217,0,0,0,.359-.047.635.635,0,0,0,.252-.142.642.642,0,0,0,.157-.239,1.156,1.156,0,0,0,.071-.334Z"/>
      <path class="e" d="M102.915,95.921h-1.541l-.293.879h-.935l1.588-4.266h.814l1.6,4.266h-.935Zm-1.3-.712h1.066l-.536-1.6Z"/>
      <path class="e" d="M113.755,93.246h-1.307V96.8h-.879V93.246H110.28v-.712h3.475Z"/>
      <path class="e" d="M73.938,103.461a1.422,1.422,0,0,1-.208.2,1.575,1.575,0,0,1-.331.193,2.384,2.384,0,0,1-.47.148,2.893,2.893,0,0,1-.623.061,2,2,0,0,1-.754-.137,1.569,1.569,0,0,1-.584-.4,1.823,1.823,0,0,1-.376-.647,2.673,2.673,0,0,1-.133-.879v-.252a2.807,2.807,0,0,1,.127-.881,1.844,1.844,0,0,1,.36-.648,1.522,1.522,0,0,1,.564-.4,1.9,1.9,0,0,1,.735-.138,2.251,2.251,0,0,1,.719.1,1.429,1.429,0,0,1,.507.292,1.324,1.324,0,0,1,.318.448,1.966,1.966,0,0,1,.149.571h-.855A1.276,1.276,0,0,0,73,100.8a.684.684,0,0,0-.152-.223.666.666,0,0,0-.239-.142,1.026,1.026,0,0,0-.338-.05.779.779,0,0,0-.686.342,1.791,1.791,0,0,0-.234,1.012V102a1.687,1.687,0,0,0,.255,1.014.873.873,0,0,0,.747.343,1.617,1.617,0,0,0,.275-.021,1.272,1.272,0,0,0,.2-.051.684.684,0,0,0,.139-.068.525.525,0,0,0,.091-.071v-.735h-.8v-.647h1.679Z"/>
      <path class="e" d="M83.058,103.121H81.517l-.293.879H80.29l1.588-4.266h.814l1.6,4.266h-.935Zm-1.3-.712h1.066l-.536-1.6Z"/>
      <path class="e" d="M93.9,100.446H92.591V104h-.879v-3.554H90.423v-.712H93.9Z"/>
      <path class="e" d="M103.61,100.446H102.3V104h-.879v-3.554h-1.289v-.712h3.475Z"/>
      <path class="e" d="M113.486,103.461a1.422,1.422,0,0,1-.208.2,1.575,1.575,0,0,1-.331.193,2.39,2.39,0,0,1-.471.148,2.888,2.888,0,0,1-.622.061,2,2,0,0,1-.755-.137,1.567,1.567,0,0,1-.584-.4,1.824,1.824,0,0,1-.377-.647,2.673,2.673,0,0,1-.133-.879v-.252a2.836,2.836,0,0,1,.127-.881,1.846,1.846,0,0,1,.361-.648,1.512,1.512,0,0,1,.563-.4,1.9,1.9,0,0,1,.735-.138,2.243,2.243,0,0,1,.719.1,1.434,1.434,0,0,1,.508.292,1.337,1.337,0,0,1,.317.448,1.966,1.966,0,0,1,.149.571h-.855a1.276,1.276,0,0,0-.082-.292.684.684,0,0,0-.152-.223.672.672,0,0,0-.238-.142,1.033,1.033,0,0,0-.339-.05.779.779,0,0,0-.686.342,1.791,1.791,0,0,0-.234,1.012V102a1.687,1.687,0,0,0,.255,1.014.873.873,0,0,0,.747.343,1.617,1.617,0,0,0,.275-.021,1.237,1.237,0,0,0,.2-.051.665.665,0,0,0,.14-.068.525.525,0,0,0,.091-.071v-.735h-.8v-.647h1.679Z"/>
      <path class="e" d="M73.855,107.646H72.548V111.2h-.879v-3.554H70.38v-.712h3.475Z"/>
      <path class="e" d="M83.7,109.779a1.745,1.745,0,0,1-.146.6,1.391,1.391,0,0,1-.34.468,1.572,1.572,0,0,1-.526.3,2.122,2.122,0,0,1-.7.109,1.83,1.83,0,0,1-.737-.143,1.494,1.494,0,0,1-.554-.408,1.85,1.85,0,0,1-.349-.646,2.774,2.774,0,0,1-.122-.851v-.281a2.706,2.706,0,0,1,.126-.853,1.883,1.883,0,0,1,.356-.647,1.545,1.545,0,0,1,.558-.41,1.809,1.809,0,0,1,.732-.144,2.031,2.031,0,0,1,.7.113,1.527,1.527,0,0,1,.52.313,1.428,1.428,0,0,1,.334.479,1.988,1.988,0,0,1,.152.6h-.879a1.33,1.33,0,0,0-.066-.337.661.661,0,0,0-.148-.246.623.623,0,0,0-.249-.151A1.2,1.2,0,0,0,82,107.6a.746.746,0,0,0-.664.324,1.821,1.821,0,0,0-.218,1v.287a3.074,3.074,0,0,0,.048.58,1.224,1.224,0,0,0,.152.416.678.678,0,0,0,.27.251.893.893,0,0,0,.4.083,1.217,1.217,0,0,0,.359-.047.635.635,0,0,0,.252-.142.642.642,0,0,0,.157-.239,1.172,1.172,0,0,0,.07-.334Z"/>
      <path class="e" d="M93.493,107.646H92.186V111.2h-.879v-3.554H90.018v-.712h3.475Z"/>
      <path class="e" d="M103.369,110.661a1.422,1.422,0,0,1-.208.2,1.575,1.575,0,0,1-.331.193,2.39,2.39,0,0,1-.471.148,2.888,2.888,0,0,1-.622.061,2,2,0,0,1-.755-.137,1.567,1.567,0,0,1-.584-.4,1.824,1.824,0,0,1-.377-.647,2.673,2.673,0,0,1-.133-.879v-.252a2.836,2.836,0,0,1,.127-.881,1.846,1.846,0,0,1,.361-.648,1.512,1.512,0,0,1,.563-.4,1.9,1.9,0,0,1,.735-.138,2.243,2.243,0,0,1,.719.1,1.434,1.434,0,0,1,.508.292,1.337,1.337,0,0,1,.317.448,1.966,1.966,0,0,1,.149.571h-.855a1.276,1.276,0,0,0-.082-.292.684.684,0,0,0-.152-.223.672.672,0,0,0-.238-.142,1.033,1.033,0,0,0-.339-.05.779.779,0,0,0-.686.342,1.791,1.791,0,0,0-.234,1.012v.258a1.687,1.687,0,0,0,.255,1.014.873.873,0,0,0,.747.343,1.617,1.617,0,0,0,.275-.021,1.237,1.237,0,0,0,.2-.051.665.665,0,0,0,.14-.068.525.525,0,0,0,.091-.071v-.735h-.8v-.647h1.679Z"/>
      <path class="e" d="M112.489,110.321h-1.541l-.293.879h-.935l1.588-4.266h.814l1.6,4.266h-.935Zm-1.3-.712h1.066l-.536-1.6Z"/>
      <path class="e" d="M73.879,114.847H72.573V118.4h-.879v-3.554H70.4v-.712h3.475Z"/>
      <path class="e" d="M82.789,117.521H81.248l-.293.879H80.02l1.588-4.266h.814l1.6,4.266h-.935Zm-1.3-.712h1.066l-.536-1.6Z"/>
      <path class="e" d="M93.767,116.979a1.745,1.745,0,0,1-.146.6,1.391,1.391,0,0,1-.34.468,1.574,1.574,0,0,1-.526.3,2.122,2.122,0,0,1-.7.109,1.83,1.83,0,0,1-.737-.143,1.494,1.494,0,0,1-.554-.408,1.85,1.85,0,0,1-.349-.646,2.774,2.774,0,0,1-.122-.851v-.281a2.706,2.706,0,0,1,.126-.853,1.883,1.883,0,0,1,.356-.647,1.545,1.545,0,0,1,.558-.41,1.809,1.809,0,0,1,.732-.144,2.031,2.031,0,0,1,.7.113,1.53,1.53,0,0,1,.521.313,1.428,1.428,0,0,1,.334.479,1.988,1.988,0,0,1,.152.6h-.879a1.33,1.33,0,0,0-.066-.337.661.661,0,0,0-.148-.246.623.623,0,0,0-.249-.151,1.2,1.2,0,0,0-.369-.051.746.746,0,0,0-.664.324,1.821,1.821,0,0,0-.218,1v.287a3.074,3.074,0,0,0,.048.58,1.224,1.224,0,0,0,.152.416.678.678,0,0,0,.27.251.893.893,0,0,0,.4.083,1.217,1.217,0,0,0,.359-.047.635.635,0,0,0,.252-.142.642.642,0,0,0,.157-.239,1.172,1.172,0,0,0,.07-.334Z"/>
      <path class="e" d="M102.752,117.521h-1.541l-.293.879h-.935l1.588-4.266h.814l1.6,4.266h-.935Zm-1.3-.712h1.066l-.536-1.6Z"/>
      <path class="e" d="M113.592,114.847h-1.307V118.4h-.879v-3.554h-1.289v-.712h3.475Z"/>
      <path class="e" d="M73.832,125.061a1.422,1.422,0,0,1-.208.2,1.575,1.575,0,0,1-.331.193,2.384,2.384,0,0,1-.47.148,2.893,2.893,0,0,1-.623.061,2,2,0,0,1-.754-.137,1.569,1.569,0,0,1-.584-.4,1.823,1.823,0,0,1-.376-.647,2.673,2.673,0,0,1-.133-.879v-.252a2.807,2.807,0,0,1,.127-.881,1.844,1.844,0,0,1,.36-.648,1.522,1.522,0,0,1,.564-.4,1.9,1.9,0,0,1,.735-.138,2.251,2.251,0,0,1,.719.1,1.429,1.429,0,0,1,.507.292,1.324,1.324,0,0,1,.318.448,1.966,1.966,0,0,1,.149.571h-.855a1.276,1.276,0,0,0-.082-.292.684.684,0,0,0-.152-.223.666.666,0,0,0-.239-.142,1.026,1.026,0,0,0-.338-.05.779.779,0,0,0-.686.342,1.791,1.791,0,0,0-.234,1.012v.258a1.687,1.687,0,0,0,.255,1.014.873.873,0,0,0,.747.343,1.617,1.617,0,0,0,.275-.021,1.272,1.272,0,0,0,.2-.051.684.684,0,0,0,.139-.068.525.525,0,0,0,.091-.071v-.735h-.8v-.647h1.679Z"/>
      <path class="e" d="M82.952,124.721H81.411l-.293.879h-.935l1.588-4.266h.814l1.6,4.266h-.935Zm-1.3-.712h1.066l-.536-1.6Z"/>
      <path class="e" d="M93.792,122.046H92.485V125.6h-.879v-3.554H90.317v-.712h3.475Z"/>
      <path class="e" d="M103.668,125.061a1.422,1.422,0,0,1-.208.2,1.575,1.575,0,0,1-.331.193,2.39,2.39,0,0,1-.471.148,2.888,2.888,0,0,1-.622.061,2,2,0,0,1-.755-.137,1.567,1.567,0,0,1-.584-.4,1.824,1.824,0,0,1-.377-.647,2.673,2.673,0,0,1-.133-.879v-.252a2.836,2.836,0,0,1,.127-.881,1.846,1.846,0,0,1,.361-.648,1.512,1.512,0,0,1,.563-.4,1.9,1.9,0,0,1,.735-.138,2.243,2.243,0,0,1,.719.1,1.434,1.434,0,0,1,.508.292,1.337,1.337,0,0,1,.317.448,1.966,1.966,0,0,1,.149.571h-.855a1.276,1.276,0,0,0-.082-.292.684.684,0,0,0-.152-.223.672.672,0,0,0-.238-.142,1.033,1.033,0,0,0-.339-.05.779.779,0,0,0-.686.342,1.791,1.791,0,0,0-.234,1.012v.258a1.687,1.687,0,0,0,.255,1.014.873.873,0,0,0,.747.343,1.617,1.617,0,0,0,.275-.021,1.237,1.237,0,0,0,.2-.051.665.665,0,0,0,.14-.068.525.525,0,0,0,.091-.071v-.735h-.8v-.647h1.679Z"/>
      <path class="e" d="M113.729,124.179a1.745,1.745,0,0,1-.146.6,1.391,1.391,0,0,1-.34.468,1.574,1.574,0,0,1-.526.3,2.119,2.119,0,0,1-.7.109,1.832,1.832,0,0,1-.737-.143,1.483,1.483,0,0,1-.553-.408,1.836,1.836,0,0,1-.35-.646,2.774,2.774,0,0,1-.121-.851v-.281a2.706,2.706,0,0,1,.126-.853,1.868,1.868,0,0,1,.356-.647,1.535,1.535,0,0,1,.558-.41,1.809,1.809,0,0,1,.732-.144,2.028,2.028,0,0,1,.7.113,1.53,1.53,0,0,1,.521.313,1.428,1.428,0,0,1,.334.479,1.988,1.988,0,0,1,.152.6h-.879a1.375,1.375,0,0,0-.065-.337.675.675,0,0,0-.148-.246.623.623,0,0,0-.249-.151,1.2,1.2,0,0,0-.369-.051.744.744,0,0,0-.663.324,1.812,1.812,0,0,0-.219,1v.287a2.992,2.992,0,0,0,.049.58,1.185,1.185,0,0,0,.152.416.665.665,0,0,0,.27.251.888.888,0,0,0,.4.083,1.213,1.213,0,0,0,.358-.047.608.608,0,0,0,.409-.381,1.172,1.172,0,0,0,.07-.334Z"/>
      <path class="e" d="M73.693,129.246H72.387V132.8h-.879v-3.554H70.219v-.712h3.475Z"/>
      <path class="e" d="M83.569,132.261a1.422,1.422,0,0,1-.208.2,1.575,1.575,0,0,1-.331.193,2.384,2.384,0,0,1-.47.148,2.893,2.893,0,0,1-.623.061,2,2,0,0,1-.754-.137,1.569,1.569,0,0,1-.584-.4,1.823,1.823,0,0,1-.376-.647,2.673,2.673,0,0,1-.133-.879v-.252a2.807,2.807,0,0,1,.127-.881,1.844,1.844,0,0,1,.36-.648,1.522,1.522,0,0,1,.564-.4,1.9,1.9,0,0,1,.735-.138,2.251,2.251,0,0,1,.719.1,1.429,1.429,0,0,1,.507.292,1.324,1.324,0,0,1,.318.448,1.966,1.966,0,0,1,.149.571h-.855a1.276,1.276,0,0,0-.082-.292.684.684,0,0,0-.152-.223.666.666,0,0,0-.239-.142,1.026,1.026,0,0,0-.338-.05.779.779,0,0,0-.686.342,1.791,1.791,0,0,0-.234,1.012v.258a1.687,1.687,0,0,0,.255,1.014.873.873,0,0,0,.747.343,1.617,1.617,0,0,0,.275-.021,1.272,1.272,0,0,0,.2-.051.684.684,0,0,0,.139-.068.525.525,0,0,0,.091-.071v-.735h-.8v-.647h1.679Z"/>
      <path class="e" d="M92.689,131.921H91.148l-.293.879h-.935l1.588-4.266h.814l1.6,4.266h-.935Zm-1.3-.712h1.066l-.536-1.6Z"/>
      <path class="e" d="M102.727,131.921h-1.541l-.293.879h-.935l1.588-4.266h.814l1.6,4.266h-.935Zm-1.3-.712h1.066l-.536-1.6Z"/>
      <path class="e" d="M110.328,132.494a.361.361,0,0,1,.36-.39.356.356,0,0,1,.354.39.358.358,0,1,1-.714,0Z"/>
      <path class="e" d="M111.636,132.494a.361.361,0,0,1,.36-.39.356.356,0,0,1,.354.39.358.358,0,1,1-.714,0Z"/>
      <path class="e" d="M112.943,132.494a.361.361,0,0,1,.36-.39.356.356,0,0,1,.354.39.358.358,0,1,1-.714,0Z"/>
    </g>
    <g>
      <g>
        <path class="f" d="M92.094,63.58c8.661,0,10.377-13.179,10.631-15.792H81.463C81.717,50.4,83.433,63.58,92.094,63.58Z"/>
        <path class="f" d="M92.094,64.42c-8.661,0-10.376,13.179-10.631,15.792h21.261C102.47,77.6,100.754,64.42,92.094,64.42Z"/>
        <path class="e" d="M101.811,72.173c-1.6-4.4-4-7.172-7.038-8.172,3.035-1,5.439-3.776,7.038-8.172a33.482,33.482,0,0,0,1.789-8.434l.027-.445H80.559l.027.445a33.483,33.483,0,0,0,1.79,8.434c1.6,4.4,4,7.172,7.038,8.172-3.035,1-5.439,3.776-7.038,8.172a33.482,33.482,0,0,0-1.789,8.434l-.027.445h23.068l-.027-.445A33.49,33.49,0,0,0,101.811,72.173Zm-20.348,8.04c.254-2.613,1.97-15.792,10.631-15.792S102.47,77.6,102.724,80.212Zm21.261-32.424c-.254,2.613-1.97,15.792-10.631,15.792S81.717,50.4,81.463,47.788Z"/>
        <g class="g">
          <path class="h" d="M91.907,63.5c-9.526,0-10.269-15.99-10.275-16.151l-1,.039c.025.631.651,14.093,8.508,16.681a8.7,8.7,0,0,1,2.953-.56C92.03,63.508,91.971,63.5,91.907,63.5Z"/>
          <path class="h" d="M95.046,64.069a8.774,8.774,0,0,1-2.766.431c-.064,0-.124.008-.187.01,9.361.212,10.454,15.992,10.463,16.153l1-.062C103.517,79.98,102.612,66.948,95.046,64.069Z"/>
        </g>
      </g>
      <g>
        <rect class="i" x="81.225" y="79.932" width="10.775" height="1.4"/>
        <rect class="j" x="92" y="79.932" width="11.149" height="1.4"/>
        <rect class="i" x="82.169" y="73.525" width="9.831" height="1.4"/>
        <rect class="j" x="92" y="73.525" width="10.329" height="1.4"/>
        <rect class="i" x="85.193" y="67.418" width="6.807" height="1.4"/>
        <rect class="j" x="92" y="67.418" width="7.557" height="1.4"/>
        <rect class="i" x="92" y="46.668" width="11.275" height="1.4"/>
        <rect class="j" x="81.351" y="46.668" width="10.649" height="1.4"/>
        <rect class="i" x="92" y="53.075" width="10.331" height="1.4"/>
        <rect class="j" x="82.171" y="53.075" width="9.829" height="1.4"/>
        <rect class="i" x="92" y="59.182" width="7.307" height="1.4"/>
        <rect class="j" x="84.943" y="59.182" width="7.057" height="1.4"/>
      </g>
      <g>
        <circle class="j" cx="103.149" cy="80.632" r="2.52"/>
        <circle class="i" cx="81.225" cy="80.632" r="2.52"/>
        <circle class="i" cx="85.193" cy="68.118" r="2.52"/>
        <circle class="i" cx="82.169" cy="74.225" r="2.52"/>
        <circle class="j" cx="102.329" cy="74.225" r="2.52"/>
        <circle class="j" cx="99.557" cy="68.118" r="2.52"/>
        <circle class="j" cx="81.351" cy="47.368" r="2.52"/>
        <circle class="i" cx="103.275" cy="47.368" r="2.52"/>
        <circle class="i" cx="99.307" cy="59.882" r="2.52"/>
        <circle class="i" cx="102.331" cy="53.775" r="2.52"/>
        <circle class="j" cx="82.171" cy="53.775" r="2.52"/>
        <circle class="j" cx="84.943" cy="59.882" r="2.52"/>
      </g>
    </g>
    <path class="d" d="M92,34H64A12.035,12.035,0,0,0,52,46v92a12.035,12.035,0,0,0,12,12H92Z"/>
  </g>
</svg>
